<svg width="24" height="17" viewBox="0 0 24 17" fill="none" xmlns="http://www.w3.org/2000/svg">
<path d="M1.41324 1.5C1.7146 1.12184 2.1333 1 2.50123 1C7.83457 1 18.9012 1 20.5012 1C22.1012 1 22.5012 2.33333 22.5012 3C22.5012 6 22.5012 12.4 22.5012 14C22.5012 14.9109 22.069 15.4329 21.5737 15.7135M1.41324 1.5C1.16856 1.80704 1.00123 2.28304 1.00123 3C1.00123 4.6 1.00122 11 1.00122 14C1.00122 14.6726 0.955986 15.3452 1.41324 15.7135M1.41324 1.5L8.50122 6.76962M22.0012 1.5L14.6237 6.76962M8.50122 6.76962L11.5012 9L14.6237 6.76962M8.50122 6.76962L1.41324 15.7135M1.41324 15.7135C1.6358 15.8928 1.97741 16 2.50123 16H20.5012C20.7883 16 21.1991 15.9258 21.5737 15.7135M14.6237 6.76962L21.5737 15.7135" stroke="current"/>
</svg>
