<svg width="24" height="24" viewBox="0 0 24 24" fill="none" xmlns="http://www.w3.org/2000/svg">
<path d="M5.69486 7.72222C4.64358 7.72222 3.2317 7.72222 2.29396 7.72222C1.74167 7.72222 1.29486 8.16994 1.29486 8.72222V22C1.29486 22.5523 1.74258 23 2.29486 23H22.2949C22.8471 23 23.2949 22.5523 23.2949 22V8.72222C23.2949 8.16994 22.8479 7.72222 22.2956 7.72222C21.4962 7.72222 20.3726 7.72222 19.5234 7.72222M5.69486 7.72222C5.69486 5.88889 6.952 1 12.6091 1C18.2663 1 19.5234 5.88889 19.5234 7.72222M5.69486 7.72222C11.0953 7.72222 14.123 7.72222 19.5234 7.72222M8.83772 15.6667C8.83772 14.4444 9.592 12 12.6091 12C15.6263 12 16.3806 14.4444 16.3806 15.6667C16.3806 16.8889 15.6263 19.3333 12.6091 19.3333C9.592 19.3333 8.83772 16.8889 8.83772 15.6667Z" stroke="current"/>
</svg>
